<svg xmlns="http://www.w3.org/2000/svg" viewBox="0 0 128 128"><path d="M65.47 23.81a5.41 5.41 0 0 0-4.39-1.15 5.7 5.7 0 0 0-3.86 2.4 5.8 5.8 0 0 0-.89 2l10.6-1.6a5.59 5.59 0 0 0-1.46-1.65zM12.38 62.85a2.91 2.91 0 1 0 0 5.82h9.4l-.58-5.82zM103.38 21.22a2.51 2.51 0 1 0-1.8-1.81 2.51 2.51 0 0 0 1.8 1.81z"/><circle cx="113.41" cy="47.82" r="1.84"/><path d="M31.18 49.77 98.12 39.7a1 1 0 0 0 .79-1.33A16.75 16.75 0 0 0 83.2 27.28a16.25 16.25 0 0 0-2.49.19L44.23 33A16.72 16.72 0 0 0 30 48.71a1 1 0 0 0 1.18 1.06zM115.62 62.85h-8.82l-.58 5.82h9.4a2.91 2.91 0 0 0 0-5.82zM100.29 54.84H27.71a3 3 0 0 0-2.25 1 3.2 3.2 0 0 0-.7 2.42l4.66 46.26a7.93 7.93 0 0 0 7.92 7.17h53.32a7.93 7.93 0 0 0 7.92-7.17l4.66-46.26a3.2 3.2 0 0 0-.7-2.42 3 3 0 0 0-2.25-1zM117.71 32.91a4.42 4.42 0 0 1-3.09 3.09 4.48 4.48 0 0 1-5.51-5.51 4.41 4.41 0 0 1 3.09-3.08 4.47 4.47 0 0 1 5.51 5.5z"/></svg>