<svg xmlns="http://www.w3.org/2000/svg" xml:space="preserve" width="655.359" height="655.359" style="shape-rendering:geometricPrecision;text-rendering:geometricPrecision;image-rendering:optimizeQuality;fill-rule:evenodd;clip-rule:evenodd" viewBox="0 0 128 128"><defs><style>.fil0{fill:#212121;fill-rule:nonzero}</style></defs><g id="Layer_x0020_1"><path class="fil0" d="M4.96 3.52c.279 0 .532.114.716.298a1.01 1.01 0 0 1 0 1.432 1.01 1.01 0 0 1-1.432 0 1.01 1.01 0 0 1 0-1.433 1.01 1.01 0 0 1 .716-.297zm.566.448a.798.798 0 1 0-1.131 1.13.797.797 0 0 0 1.13 0 .797.797 0 0 0 0-1.13zM1.866 3.52c.28 0 .533.114.716.298a1.01 1.01 0 0 1 0 1.432 1.01 1.01 0 0 1-1.432 0 1.01 1.01 0 0 1 0-1.433 1.01 1.01 0 0 1 .716-.297zm.566.448a.798.798 0 1 0-1.13 1.13.797.797 0 0 0 1.13 0 .797.797 0 0 0 0-1.13z"/><path class="fil0" d="m3.581 3.198-.471-.47-.141.211a.324.324 0 0 1-.134.12.408.408 0 0 1-.165.035h-.003l-.854-.001c-.157 0-.262-.064-.312-.146a.231.231 0 0 1-.034-.12c0-.042.011-.083.034-.12.05-.083.155-.147.312-.147H2.5l.289-.481.002-.004a.503.503 0 0 1 .056-.07.378.378 0 0 1 .275-.124.493.493 0 0 1 .276.089.697.697 0 0 1 .096.077l.95.86.003.003.024.026a.496.496 0 0 1 .094.328.49.49 0 0 1-.112.31.273.273 0 0 1-.023.022l-.012.008-.685.426v.989a.328.328 0 0 1-.091.224.327.327 0 0 1-.227.09H3.41a.328.328 0 0 1-.208-.075.308.308 0 0 1-.11-.24V3.947c0-.299.236-.516.445-.708l.043-.04zm-.412-.713.64.64.075.075-.076.075c-.04.042-.083.08-.126.12-.177.163-.375.346-.375.552v1.069a.1.1 0 0 0 .032.079c.02.017.047.025.071.025h.002a.115.115 0 0 0 .079-.028c.016-.015.027-.042.03-.084V3.91l.05-.03.727-.453v-.001H4.3c.032-.033.05-.1.053-.171.003-.072-.011-.143-.045-.184a.1.1 0 0 0-.007-.008l-.95-.861-.002-.002a.487.487 0 0 0-.068-.054.283.283 0 0 0-.155-.053A.171.171 0 0 0 3 2.15a.294.294 0 0 0-.032.041l-.318.53-.031.051H1.813c-.073 0-.115.02-.13.043a.02.02 0 0 0 0 .021c.015.024.057.043.13.043l.85.001a.207.207 0 0 0 .081-.015.119.119 0 0 0 .047-.044V2.82l.214-.32.072-.108.092.092z"/><path class="fil0" d="M2.064 1.653a.266.266 0 0 0 .267.267.266.266 0 0 0 .188-.455.266.266 0 0 0-.377 0 .266.266 0 0 0-.078.188zm-.073.34a.478.478 0 0 1 .34-.82.478.478 0 0 1 .48.48.479.479 0 0 1-.82.34z"/></g><path style="fill:none" d="M0 0h6.827v6.827H0z" id="Layer_x0020_1_0"/></svg>