<svg version="1.1" id="hobbies_1_" xmlns="http://www.w3.org/2000/svg" x="0" y="0" viewBox="0 0 128 128" style="enable-background:new 0 0 128 128" xml:space="preserve"><style>.st0{display:none}.st1{display:inline}.st2,.st3{fill:#141414}.st3{display:inline;fill-rule:evenodd;clip-rule:evenodd}</style><g id="row1_1_"><g id="hiking_1_"><path class="st2" d="M64 25.3c6.8 0 12.3-5.7 12.3-12.6C76.3 5.7 70.8 0 64 0c-6.8 0-12.3 5.7-12.3 12.6 0 7 5.5 12.7 12.3 12.7zm7.7 40.4c6.6 3.9 17 5.1 17 5.1l.8-8.4s-10-5.3-16.2-10.1c-2.9-13.6-6.9-21.9-6.9-21.9L54 25.3l-11.6 3.8-3.1 51.8L20.8 128h11.6l17.7-42.1H54L77.1 128h10L61.7 72.4l-1.5-18.5c-.1 0 3.9 7.3 11.5 11.8z" id="_x32__9_"/><path class="st2" d="M23.6 69.8h10.8L37 29.1H23.6v40.7zm70.3-43.6-5.6 1.2L101.5 128l5.6-1.2L93.9 26.2z" id="_x31__9_"/></g></g></svg>