<?xml version="1.0" encoding="utf-8"?><!-- Uploaded to: SVG Repo, www.svgrepo.com, Generator: SVG Repo Mixer Tools -->
<svg viewBox="0 0 24 24" fill="none" xmlns="http://www.w3.org/2000/svg">
<path d="M18.544 5.95467C19.9282 5.95467 21.0503 4.84553 21.0503 3.47733C21.0503 2.10914 19.9282 1 18.544 1C17.1598 1 16.0377 2.10914 16.0377 3.47733C16.0377 4.84553 17.1598 5.95467 18.544 5.95467Z" fill="#0F0F0F"/>
<path d="M2.41932 12.9809C1.91577 12.7534 1.32095 12.9724 1.09075 13.4701C0.860558 13.9679 1.08216 14.5558 1.58571 14.7834L19.1153 22.7043C19.8545 23.0642 20.6163 23.0856 21.2817 22.8226C21.9292 22.5665 22.4154 22.07 22.6989 21.5096C22.9824 20.9491 23.0925 20.2668 22.9112 19.6011C22.7235 18.9118 22.2432 18.3185 21.4987 17.9505C21.0034 17.7057 20.4012 17.9041 20.1536 18.3936C19.906 18.8831 20.1068 19.4784 20.602 19.7231C20.9671 19.9036 21.0911 20.2564 20.9055 20.6232C20.7198 20.9903 20.3603 21.1039 19.9949 20.9233L19.9792 20.9155L11.9595 17.2917L15.1066 15.4253C15.6084 15.1277 15.7467 14.4703 15.4066 13.9996L13.5314 11.4048L14.1209 10.8222L16.8478 12.1698C17.0956 12.3198 17.3687 12.3957 17.659 12.3957H20.0478C20.6015 12.3957 21.0503 11.9521 21.0503 11.4048C21.0503 10.8575 20.6015 10.4139 20.0478 10.4139H18.892C18.402 10.4139 17.9837 10.0637 17.9031 9.58584L17.7251 8.52962C17.5428 7.44893 16.7905 6.82244 15.9981 6.16976C15.1778 5.49403 13.9655 5.57241 13.2412 6.34802L12.076 7.59573L6.96217 5.06835C6.46695 4.8236 5.86477 5.02201 5.61716 5.51151C5.36955 6.00101 5.57028 6.59623 6.0655 6.84098L10.6602 9.1118L10.1117 9.69913C9.27561 10.5945 9.44716 12.0165 10.4728 12.6924L12.3462 13.9269C12.6584 14.1326 12.6396 14.5921 12.3116 14.7722L9.63563 16.2417L2.41932 12.9809Z" fill="#0F0F0F"/>
</svg>