<svg version="1.1" id="hobbies_1_" xmlns="http://www.w3.org/2000/svg" viewBox="0 0 128 128" style="enable-background:new 0 0 128 128" xml:space="preserve"><style>.st0{display:none}.st1{display:inline}.st2,.st4{fill:#141414}.st4{fill-rule:evenodd;clip-rule:evenodd}</style><g id="row3_1_"><g id="swimming_1_"><path class="st2" d="M22.7 85.2c11 8.7 20.1 8.7 31.1 0 7.3-5.7 13.5-5.7 20.7 0 11.2 8.8 20.7 8.8 31.8 0 7.5-5.9 11.1-5.9 18.6 0l3-7.2c-9.3-7.3-15.4-7.3-24.7 0-9.5 7.4-16.6 7.2-25.7 0-8.9-7-17.5-7.3-26.8 0-9.8 7.7-16.3 6.9-25 0-9.3-7.3-16.8-7-25.7 0l3 7.2c7.4-5.8 12.4-5.8 19.7 0zm80.6 7.8c-9.5 7.4-16.6 7.2-25.7 0-8.9-7-17.5-7.3-26.8 0-9.8 7.7-16.3 6.9-25 0-9.4-7.3-16.9-7-25.8 0l3 7.2c7.4-5.8 12.3-5.8 19.7 0 11 8.7 20.1 8.7 31.1 0 7.3-5.7 13.5-5.7 20.7 0 11.2 8.8 20.7 8.8 31.8 0 7.5-5.9 11.1-5.9 18.6 0l3-7.2c-9.2-7.3-15.3-7.3-24.6 0zm-3.2-22.3c6.4 0 11.7-5.5 11.7-12.4s-5.2-12.4-11.7-12.4c-6.4 0-11.7 5.5-11.7 12.4s5.3 12.4 11.7 12.4z" id="_x32__4_"/><path id="_x31__4_" class="st4" d="M94 21.2c3.8 0 9.1-.2 9.5 9.2-.6 2.5-3.5 5.3-6.7 5.9-9.4 1.5-23.8 4.6-23.8 4.6l21 40.3s-3.2 1.5-8.1 0c-3.5-1.1-9.5-10.9-20.8-10.7-13.1.2-20.7 10.8-26 10.7-7.5 0-10.6-2.7-10.6-2.7s23.1-13.6 35-20.4c-2-9.3-10-13.5-10.3-24.7.5-6.3 28.3-10.1 40.8-12.2z"/></g></g></svg>