<svg xmlns="http://www.w3.org/2000/svg" viewBox="0 0 1920 1080"><g transform="
          rotate(0 960 540) 
          translate(-0 -0)
          scale(1)
        "><rect width="1920" height="1080" fill="rgb(171, 179, 255)"></rect><g transform="translate(0, 0)"><path fill="rgb(106, 105, 208)" fill-opacity="1" d="M0,151.261L29.091,150.032C58.182,148.803,116.364,146.345,174.545,145.963C232.727,145.582,290.909,147.279,349.091,147.469C407.273,147.66,465.455,146.345,523.636,129.936C581.818,113.526,640,82.021,698.182,79.361C756.364,76.7,814.545,102.883,872.727,94.858C930.909,86.834,989.091,44.601,1047.273,42.206C1105.455,39.811,1163.636,77.253,1221.818,86.58C1280,95.906,1338.182,77.116,1396.364,59.724C1454.545,42.332,1512.727,26.338,1570.909,34.594C1629.091,42.85,1687.273,75.355,1745.455,81.216C1803.636,87.078,1861.818,66.294,1890.909,55.903L1920,45.511L1920,1080L1890.909,1080C1861.818,1080,1803.636,1080,1745.455,1080C1687.273,1080,1629.091,1080,1570.909,1080C1512.727,1080,1454.545,1080,1396.364,1080C1338.182,1080,1280,1080,1221.818,1080C1163.636,1080,1105.455,1080,1047.273,1080C989.091,1080,930.909,1080,872.727,1080C814.545,1080,756.364,1080,698.182,1080C640,1080,581.818,1080,523.636,1080C465.455,1080,407.273,1080,349.091,1080C290.909,1080,232.727,1080,174.545,1080C116.364,1080,58.182,1080,29.091,1080L0,1080Z"></path></g><g transform="translate(0, 154.28571428571428)"><path fill="rgb(56, 48, 170)" fill-opacity="1" d="M0,45.445L29.091,60.535C58.182,75.625,116.364,105.805,174.545,122.013C232.727,138.222,290.909,140.459,349.091,122.004C407.273,103.548,465.455,64.398,523.636,48.267C581.818,32.136,640,39.022,698.182,54.117C756.364,69.211,814.545,92.514,872.727,108.999C930.909,125.483,989.091,135.15,1047.273,128.792C1105.455,122.434,1163.636,100.051,1221.818,77.277C1280,54.503,1338.182,31.338,1396.364,18.585C1454.545,5.831,1512.727,3.489,1570.909,17.605C1629.091,31.722,1687.273,62.296,1745.455,71.907C1803.636,81.517,1861.818,70.163,1890.909,64.486L1920,58.809L1920,925.714L1890.909,925.714C1861.818,925.714,1803.636,925.714,1745.455,925.714C1687.273,925.714,1629.091,925.714,1570.909,925.714C1512.727,925.714,1454.545,925.714,1396.364,925.714C1338.182,925.714,1280,925.714,1221.818,925.714C1163.636,925.714,1105.455,925.714,1047.273,925.714C989.091,925.714,930.909,925.714,872.727,925.714C814.545,925.714,756.364,925.714,698.182,925.714C640,925.714,581.818,925.714,523.636,925.714C465.455,925.714,407.273,925.714,349.091,925.714C290.909,925.714,232.727,925.714,174.545,925.714C116.364,925.714,58.182,925.714,29.091,925.714L0,925.714Z"></path></g><g transform="translate(0, 308.57142857142856)"><path fill="rgb(35, 24, 147)" fill-opacity="1" d="M0,22.064L29.091,24.842C58.182,27.62,116.364,33.177,174.545,37.118C232.727,41.059,290.909,43.385,349.091,57.024C407.273,70.663,465.455,95.615,523.636,112.607C581.818,129.6,640,138.632,698.182,144.051C756.364,149.469,814.545,151.272,872.727,140.839C930.909,130.405,989.091,107.735,1047.273,89.698C1105.455,71.661,1163.636,58.257,1221.818,46.559C1280,34.86,1338.182,24.867,1396.364,39.631C1454.545,54.396,1512.727,93.919,1570.909,116.643C1629.091,139.367,1687.273,145.291,1745.455,148.463C1803.636,151.636,1861.818,152.056,1890.909,152.266L1920,152.476L1920,771.429L1890.909,771.429C1861.818,771.429,1803.636,771.429,1745.455,771.429C1687.273,771.429,1629.091,771.429,1570.909,771.429C1512.727,771.429,1454.545,771.429,1396.364,771.429C1338.182,771.429,1280,771.429,1221.818,771.429C1163.636,771.429,1105.455,771.429,1047.273,771.429C989.091,771.429,930.909,771.429,872.727,771.429C814.545,771.429,756.364,771.429,698.182,771.429C640,771.429,581.818,771.429,523.636,771.429C465.455,771.429,407.273,771.429,349.091,771.429C290.909,771.429,232.727,771.429,174.545,771.429C116.364,771.429,58.182,771.429,29.091,771.429L0,771.429Z"></path></g><g transform="translate(0, 462.85714285714283)"><path fill="rgb(35, 24, 133)" fill-opacity="1" d="M0,98.46L29.091,96.219C58.182,93.978,116.364,89.496,174.545,80.339C232.727,71.182,290.909,57.35,349.091,68.276C407.273,79.201,465.455,114.885,523.636,129.766C581.818,144.647,640,138.725,698.182,137.041C756.364,135.358,814.545,137.913,872.727,134.949C930.909,131.984,989.091,123.501,1047.273,102.338C1105.455,81.175,1163.636,47.332,1221.818,51.385C1280,55.438,1338.182,97.386,1396.364,106.916C1454.545,116.447,1512.727,93.56,1570.909,74.098C1629.091,54.637,1687.273,38.601,1745.455,38.27C1803.636,37.94,1861.818,53.315,1890.909,61.002L1920,68.69L1920,617.143L1890.909,617.143C1861.818,617.143,1803.636,617.143,1745.455,617.143C1687.273,617.143,1629.091,617.143,1570.909,617.143C1512.727,617.143,1454.545,617.143,1396.364,617.143C1338.182,617.143,1280,617.143,1221.818,617.143C1163.636,617.143,1105.455,617.143,1047.273,617.143C989.091,617.143,930.909,617.143,872.727,617.143C814.545,617.143,756.364,617.143,698.182,617.143C640,617.143,581.818,617.143,523.636,617.143C465.455,617.143,407.273,617.143,349.091,617.143C290.909,617.143,232.727,617.143,174.545,617.143C116.364,617.143,58.182,617.143,29.091,617.143L0,617.143Z"></path></g><g transform="translate(0, 617.1428571428571)"><path fill="rgb(37, 28, 114)" fill-opacity="1" d="M0,151.116L29.091,139.026C58.182,126.936,116.364,102.757,174.545,88.508C232.727,74.26,290.909,69.943,349.091,58.47C407.273,46.997,465.455,28.369,523.636,18.834C581.818,9.299,640,8.857,698.182,17.245C756.364,25.632,814.545,42.848,872.727,66.182C930.909,89.515,989.091,118.965,1047.273,128.95C1105.455,138.936,1163.636,129.458,1221.818,108.236C1280,87.013,1338.182,54.047,1396.364,58.103C1454.545,62.159,1512.727,103.238,1570.909,109.655C1629.091,116.072,1687.273,87.827,1745.455,81.207C1803.636,74.587,1861.818,89.593,1890.909,97.096L1920,104.599L1920,462.857L1890.909,462.857C1861.818,462.857,1803.636,462.857,1745.455,462.857C1687.273,462.857,1629.091,462.857,1570.909,462.857C1512.727,462.857,1454.545,462.857,1396.364,462.857C1338.182,462.857,1280,462.857,1221.818,462.857C1163.636,462.857,1105.455,462.857,1047.273,462.857C989.091,462.857,930.909,462.857,872.727,462.857C814.545,462.857,756.364,462.857,698.182,462.857C640,462.857,581.818,462.857,523.636,462.857C465.455,462.857,407.273,462.857,349.091,462.857C290.909,462.857,232.727,462.857,174.545,462.857C116.364,462.857,58.182,462.857,29.091,462.857L0,462.857Z"></path></g><g transform="translate(0, 771.4285714285714)"><path fill="rgb(29, 22, 84)" fill-opacity="1" d="M0,65.128L29.091,73.252C58.182,81.376,116.364,97.624,174.545,105.527C232.727,113.431,290.909,112.99,349.091,105.409C407.273,97.829,465.455,83.108,523.636,78.861C581.818,74.613,640,80.838,698.182,83.881C756.364,86.924,814.545,86.784,872.727,85.27C930.909,83.756,989.091,80.868,1047.273,78.333C1105.455,75.798,1163.636,73.617,1221.818,63.24C1280,52.862,1338.182,34.288,1396.364,23.196C1454.545,12.105,1512.727,8.496,1570.909,13.649C1629.091,18.803,1687.273,32.718,1745.455,41.466C1803.636,50.214,1861.818,53.795,1890.909,55.585L1920,57.375L1920,308.571L1890.909,308.571C1861.818,308.571,1803.636,308.571,1745.455,308.571C1687.273,308.571,1629.091,308.571,1570.909,308.571C1512.727,308.571,1454.545,308.571,1396.364,308.571C1338.182,308.571,1280,308.571,1221.818,308.571C1163.636,308.571,1105.455,308.571,1047.273,308.571C989.091,308.571,930.909,308.571,872.727,308.571C814.545,308.571,756.364,308.571,698.182,308.571C640,308.571,581.818,308.571,523.636,308.571C465.455,308.571,407.273,308.571,349.091,308.571C290.909,308.571,232.727,308.571,174.545,308.571C116.364,308.571,58.182,308.571,29.091,308.571L0,308.571Z"></path></g><g transform="translate(0, 925.7142857142857)"><path fill="rgb(17, 12, 48)" fill-opacity="1" d="M0,51.502L29.091,57.054C58.182,62.607,116.364,73.712,174.545,81.713C232.727,89.715,290.909,94.614,349.091,102.283C407.273,109.953,465.455,120.392,523.636,118.61C581.818,116.827,640,102.821,698.182,88.339C756.364,73.857,814.545,58.898,872.727,59.271C930.909,59.644,989.091,75.349,1047.273,72.854C1105.455,70.36,1163.636,49.666,1221.818,55.282C1280,60.898,1338.182,92.825,1396.364,99.092C1454.545,105.359,1512.727,85.966,1570.909,90.287C1629.091,94.607,1687.273,122.641,1745.455,134.456C1803.636,146.271,1861.818,141.867,1890.909,139.665L1920,137.463L1920,154.286L1890.909,154.286C1861.818,154.286,1803.636,154.286,1745.455,154.286C1687.273,154.286,1629.091,154.286,1570.909,154.286C1512.727,154.286,1454.545,154.286,1396.364,154.286C1338.182,154.286,1280,154.286,1221.818,154.286C1163.636,154.286,1105.455,154.286,1047.273,154.286C989.091,154.286,930.909,154.286,872.727,154.286C814.545,154.286,756.364,154.286,698.182,154.286C640,154.286,581.818,154.286,523.636,154.286C465.455,154.286,407.273,154.286,349.091,154.286C290.909,154.286,232.727,154.286,174.545,154.286C116.364,154.286,58.182,154.286,29.091,154.286L0,154.286Z"></path></g></g></svg>